#!OML:ASF H:\Pregnant\Project 1\Capture day 1\Session 1\femalepreg.ASF
:FULLY-SPECIFIED
:DEGREES
1271
root 6.56571 15.6569 23.0479 -155.996 196.79 -184.089
lowerback -12.9294 -1.02319 -13.8289
upperback -5.70245 0.265611 -1.76185
thorax 1.05494 0.314302 5.93913
lowerneck -17.7971 -10.0509 -11.3526
upperneck 19.168 -13.8345 12.2894
head 10.8098 -5.92266 4.08506
rclavicle -5.1684e-015 2.06736e-014
rhumerus -38.8946 2.78875 -79.7066
rradius 50.3262
rwrist -8.85234
rhand -15.8393 -16.2231
rfingers 7.12502
rthumb 10.3551 -45.9482
lclavicle -5.1684e-015 2.06736e-014
lhumerus -38.2823 -9.76403 77.352
lradius 20.1155
lwrist 37.4463
lhand -26.1671 2.97451
lfingers 7.12502
lthumb 0.384342 32.9539
rfemur -63.4575 7.8089 21.9424
rtibia 67.5972
rfoot -18.2986 -11.55
rtoes -11.378
lfemur -34.3697 -12.0357 -12.7857
ltibia 20.4837
lfoot -6.61788 9.04049
ltoes -22.6354
1272
root 6.55257 15.6582 23.1062 -155.978 196.843 -183.923
lowerback -13.072 -1.02012 -13.7257
upperback -5.88941 0.261406 -1.72571
thorax 0.93269 0.326865 5.91976
lowerneck -18.0745 -9.97138 -11.2597
upperneck 19.4961 -13.6814 11.9905
head 10.9276 -5.85915 3.98431
rclavicle -3.26007e-014 -4.77083e-014
rhumerus -38.8248 3.10694 -80.0092
rradius 51.1277
rwrist -8.7454
rhand -14.7451 -16.0302
rfingers 7.12502
rthumb 11.4106 -45.6998
lclavicle -3.26007e-014 -4.77083e-014
lhumerus -38.724 -10.1701 77.5273
lradius 20.0942
lwrist 36.8961
lhand -26.0671 3.17365
lfingers 7.12502
lthumb 0.480982 33.1529
rfemur -63.0992 7.95168 21.4465
rtibia 65.4095
rfoot -18.2366 -11.5596
rtoes -11.4713
lfemur -33.9831 -12.0611 -13.0311
ltibia 20.1513
lfoot -6.85891 9.02629
ltoes -22.0766
1273
root 6.53817 15.6604 23.1649 -155.957 196.88 -183.748
lowerback -13.2333 -1.01391 -13.6152
upperback -6.0743 0.26385 -1.69689
thorax 0.821623 0.341477 5.88948
lowerneck -18.3388 -9.89811 -11.1646
upperneck 19.8137 -13.5408 11.7058
head 11.0432 -5.8013 3.88613
rclavicle -2.56432e-014 4.77083e-014
rhumerus -38.7633 3.4359 -80.3176
rradius 51.8604
rwrist -8.52179
rhand -13.6527 -15.766
rfingers 7.12502
rthumb 12.464 -45.3743
lclavicle -2.56432e-014 4.77083e-014
lhumerus -39.1509 -10.6019 77.7106
lradius 20.1464
lwrist 36.4389
lhand -25.974 3.35123
lfingers 7.12502
lthumb 0.570844 33.3302
rfemur -62.6916 8.13883 20.896
rtibia 63.1774
rfoot -18.1945 -11.5586
rtoes -11.5244
lfemur -33.567 -12.0761 -13.2824
ltibia 19.7529
lfoot -7.09765 8.96712
ltoes -21.3905
1274
root 6.52248 15.6632 23.2242 -155.934 196.897 -183.564
lowerback -13.412 -1.00495 -13.4982
upperback -6.25801 0.272155 -1.67501
thorax 0.720283 0.357881 5.84905
lowerneck -18.5765 -9.83192 -11.0671
upperneck 20.1161 -13.415 11.4358
head 11.1524 -5.75062 3.79077
rclavicle -3.47873e-014 -2.8625e-014
rhumerus -38.7224 3.77614 -80.6343
rradius 52.5328
rwrist -8.21402
rhand -12.6138 -15.4187
rfingers 7.12502
rthumb 13.4654 -44.9634
lclavicle -3.47873e-014 -2.8625e-014
lhumerus -39.5654 -11.0559 77.899
lradius 20.2685
lwrist 36.1005
lhand -25.9032 3.51594
lfingers 7.12502
lthumb 0.639245 33.4947
rfemur -62.2411 8.3744 20.2906
rtibia 60.9191
rfoot -18.172 -11.5518
rtoes -11.4782
lfemur -33.1181 -12.0787 -13.5398
ltibia 19.2855
lfoot -7.33264 8.85737
ltoes -20.5739
1275
root 6.50552 15.6665 23.2836 -155.919 196.888 -183.37
lowerback -13.5921 -0.997256 -13.3754
upperback -6.43455 0.278929 -1.65837
thorax 0.627846 0.372229 5.79952
lowerneck -18.7838 -9.77048 -10.9737
upperneck 20.3846 -13.3019 11.1977
head 11.2491 -5.70502 3.7058
rclavicle -9.64106e-015 -3.81667e-014
rhumerus -38.6946 4.14007 -80.966
rradius 53.1501
rwrist -7.85712
rhand -11.6614 -14.9795
rfingers 7.12502
rthumb 14.3833 -44.4611
lclavicle -9.64106e-015 -3.81667e-014
lhumerus -39.9534 -11.4936 78.0681
lradius 20.4489
lwrist 35.8725
lhand -25.8447 3.56039
lfingers 7.12502
lthumb 0.695742 33.539
rfemur -61.7461 8.65802 19.632
rtibia 58.6525
rfoot -18.1655 -11.5431
rtoes -11.3274
lfemur -32.6334 -12.0751 -13.8009
ltibia 18.7574
lfoot -7.56192 8.69422
ltoes -19.6333
1276
root 6.48742 15.6702 23.3435 -155.916 196.846 -183.166
lowerback -13.7728 -0.987466 -13.2424
upperback -6.60762 0.287622 -1.64718
thorax 0.539446 0.386611 5.7388
lowerneck -18.9639 -9.71704 -10.8833
upperneck 20.6377 -13.2038 10.9745
head 11.3392 -5.66671 3.62451
rclavicle -2.5842e-014 -7.95139e-015
rhumerus -38.6951 4.51529 -81.3033
rradius 53.7136
rwrist -7.4758
rhand -10.8169 -14.4493
rfingers 7.12502
rthumb 15.1969 -43.8713
lclavicle -2.5842e-014 -7.95139e-015
lhumerus -40.3219 -11.9306 78.2295
lradius 20.6817
lwrist 35.7612
lhand -25.8148 3.4997
lfingers 7.12502
lthumb 0.724571 33.4782
rfemur -61.2069 8.9845 18.9248
rtibia 56.3969
rfoot -18.1818 -11.5428
rtoes -11.112
lfemur -32.112 -12.0721 -14.0658
ltibia 18.172
lfoot -7.78409 8.48371
ltoes -18.5927
1277
root 6.46819 15.6739 23.404 -155.923 196.776 -182.956
lowerback -13.9542 -0.977123 -13.1032
upperback -6.77289 0.296927 -1.63551
thorax 0.459821 0.400075 5.67521
lowerneck -19.148 -9.67126 -10.7908
upperneck 20.89 -13.1169 10.7534
head 11.4319 -5.63333 3.54119
rclavicle -3.11098e-014 3.97569e-014
rhumerus -38.7106 4.90646 -81.6408
rradius 54.2221
rwrist -7.08878
rhand -10.0827 -13.877
rfingers 7.12502
rthumb 15.904 -43.244
lclavicle -3.11098e-014 3.97569e-014
lhumerus -40.6581 -12.3368 78.3718
lradius 20.9538
lwrist 35.7506
lhand -25.8327 3.28759
lfingers 7.12502
lthumb 0.707373 33.2662
rfemur -60.6296 9.35699 18.177
rtibia 54.1699
rfoot -18.2027 -11.5796
rtoes -10.8805
lfemur -31.5551 -12.0688 -14.3316
ltibia 17.5408
lfoot -8.00063 8.23017
ltoes -17.4533
1278
root 6.44818 15.6773 23.4652 -155.957 196.656 -182.736
lowerback -14.1211 -0.96432 -12.9475
upperback -6.9313 0.305749 -1.6275
thorax 0.380477 0.412359 5.59841
lowerneck -19.2993 -9.63467 -10.711
upperneck 21.1271 -13.0441 10.5457
head 11.5173 -5.60771 3.46293
rclavicle -2.11706e-014 -4.6118e-014
rhumerus -38.757 5.28957 -81.9678
rradius 54.6854
rwrist -6.69367
rhand -9.4171 -13.3501
rfingers 7.12502
rthumb 16.5449 -42.6648
lclavicle -2.11706e-014 -4.6118e-014
lhumerus -40.9701 -12.7186 78.4942
lradius 21.263
lwrist 35.8247
lhand -25.8892 2.9374
lfingers 7.12502
lthumb 0.65278 32.9161
rfemur -60.0027 9.75659 17.3969
rtibia 51.9932
rfoot -18.2303 -11.6723
rtoes -10.6534
lfemur -30.957 -12.0775 -14.6026
ltibia 16.8701
lfoot -8.20878 7.92669
ltoes -16.2504
1279
root 6.42714 15.6798 23.5272 -156.005 196.512 -182.511
lowerback -14.2813 -0.945966 -12.7862
upperback -7.08618 0.320222 -1.6155
thorax 0.30044 0.427066 5.52348
lowerneck -19.4392 -9.60653 -10.6416
upperneck 21.3629 -12.9805 10.3374
head 11.6024 -5.58791 3.38451
rclavicle 2.57426e-014 -5.56597e-014
rhumerus -38.8258 5.66681 -82.2733
rradius 55.0983
rwrist -6.27917
rhand -8.7827 -12.9006
rfingers 7.12502
rthumb 17.1556 -42.1632
lclavicle 2.57426e-014 -5.56597e-014
lhumerus -41.254 -13.0477 78.5905
lradius 21.6026
lwrist 35.9675
lhand -25.9752 2.46181
lfingers 7.12502
lthumb 0.569731 32.4408
rfemur -59.3495 10.2019 16.5888
rtibia 49.8866
rfoot -18.2659 -11.8228
rtoes -10.426
lfemur -30.3257 -12.0724 -14.8833
ltibia 16.1701
lfoot -8.41436 7.59069
ltoes -15.0031
1280
root 6.40518 15.6814 23.5899 -156.077 196.342 -182.283
lowerback -14.4353 -0.920839 -12.6162
upperback -7.23009 0.3424 -1.60065
thorax 0.227833 0.444357 5.44786
lowerneck -19.5596 -9.58667 -10.5894
upperneck 21.5861 -12.9248 10.1347
head 11.6823 -5.57369 3.3097
rclavicle -5.5113e-014 -2.38542e-014
rhumerus -38.9074 6.03244 -82.5546
rradius 55.4597
rwrist -5.84637
rhand -8.17129 -12.5649
rfingers 7.12502
rthumb 17.744 -41.7753
lclavicle -5.5113e-014 -2.38542e-014
lhumerus -41.5005 -13.3198 78.6553
lradius 21.9704
lwrist 36.1741
lhand -26.0731 1.8965
lfingers 7.12502
lthumb 0.475191 31.8757
rfemur -58.6683 10.6867 15.7625
rtibia 47.8696
rfoot -18.3126 -12.0339
rtoes -10.1968
lfemur -29.6527 -12.0587 -15.1756
ltibia 15.4394
lfoot -8.60868 7.22847
ltoes -13.7607
1281
root 6.38222 15.6819 23.6532 -156.162 196.149 -182.051
lowerback -14.5853 -0.891697 -12.4419
upperback -7.36684 0.369107 -1.579
thorax 0.160081 0.463167 5.37785
lowerneck -19.6527 -9.57296 -10.5592
upperneck 21.7932 -12.8735 9.93963
head 11.7541 -5.5639 3.24093
rclavicle -1.35174e-014 -2.22639e-014
rhumerus -38.9998 6.39207 -82.8104
rradius 55.7644
rwrist -5.40058
rhand -7.60393 -12.2883
rfingers 7.12502
rthumb 18.2899 -41.4485
lclavicle -1.35174e-014 -2.22639e-014
lhumerus -41.7098 -13.5186 78.6835
lradius 22.3648
lwrist 36.4354
lhand -26.1658 1.27439
lfingers 7.12502
lthumb 0.385658 31.2538
rfemur -57.9777 11.2086 14.9241
rtibia 45.9603
rfoot -18.3704 -12.3186
rtoes -9.96819
lfemur -28.9518 -12.0222 -15.4801
ltibia 14.6858
lfoot -8.79703 6.83116
ltoes -12.5274
1282
root 6.35824 15.6816 23.717 -156.26 195.937 -181.816
lowerback -14.7338 -0.858644 -12.264
upperback -7.49553 0.400777 -1.55315
thorax 0.0995838 0.483517 5.31104
lowerneck -19.7184 -9.56386 -10.5474
upperneck 21.9827 -12.8258 9.75404
head 11.817 -5.55773 3.17849
rclavicle -1.74931e-014 -1.59028e-015
rhumerus -39.0959 6.74332 -83.0463
rradius 56.0073
rwrist -4.9583
rhand -7.11659 -12.0534
rfingers 7.12502
rthumb 18.7587 -41.1689
lclavicle -1.74931e-014 -1.59028e-015
lhumerus -41.8804 -13.6439 78.6685
lradius 22.7848
lwrist 36.7446
lhand -26.2432 0.62047
lfingers 7.12502
lthumb 0.310865 30.6
rfemur -57.2854 11.7632 14.0816
rtibia 44.1734
rfoot -18.4378 -12.6782
rtoes -9.73826
lfemur -28.2218 -11.9621 -15.7953
ltibia 13.9052
lfoot -8.9724 6.39572
ltoes -11.3125
